<svg width="121" height="120" viewBox="0 0 121 120" fill="none" xmlns="http://www.w3.org/2000/svg">
<circle cx="60.5" cy="60" r="60" fill="#E1D7CD"/>
<path d="M54.3126 32.0709L53.2474 30.3781L54.3126 32.0709L54.3125 32.0709L54.3121 32.0712L54.3105 32.0722L54.3042 32.0761L54.2792 32.0919L54.1814 32.1535L53.8081 32.3885C53.4857 32.5916 53.023 32.8831 52.4623 33.2367C51.3408 33.9439 49.8275 34.8992 48.2596 35.8918L48.2587 35.8923C45.1563 37.8542 41.5951 40.087 40.7317 40.5661L40.6468 40.6133L40.5828 40.641C38.5815 41.9233 38.1001 43.9778 38.0092 45.3314L38.0094 45.3378C38.0102 45.3649 38.0113 45.406 38.0113 45.4543V45.4956L38.0096 45.5369C37.9987 45.7992 37.9989 46.0113 38.0014 46.1525C38.0027 46.2229 38.0046 46.2751 38.0059 46.3064L38.0073 46.3366L38.0074 46.3372C38.0074 46.3381 38.0074 46.3378 38.0074 46.3383C38.0075 46.3391 38.0075 46.3404 38.0075 46.3401L38.0113 46.3985V46.4627V76.6081C38.0113 77.8714 38.6978 78.9216 40.1618 79.757C41.6662 80.6155 43.7893 81.095 45.9644 81.095C47.3109 81.095 48.6469 80.8862 49.782 80.5289C49.9034 80.4512 50.006 80.3516 50.0768 80.2498C50.1583 80.1326 50.1647 80.0638 50.1651 80.0628C50.1651 80.0628 50.1651 80.0628 50.1651 80.0629V55.8343C50.1651 53.0719 50.4583 50.7768 51.3622 48.8389C52.2967 46.8354 53.7822 45.4239 55.7515 44.2424L55.8174 44.2028L55.8861 44.1685C55.886 44.1685 55.8867 44.1681 55.8882 44.1672C55.9078 44.1557 56.065 44.0634 56.4198 43.8354C56.7591 43.6174 57.2023 43.3256 57.7173 42.9824C58.7457 42.297 60.0353 41.4232 61.301 40.5605C62.5656 39.6985 63.802 38.8505 64.7225 38.2179C65.1827 37.9016 65.5637 37.6393 65.8297 37.4561L66.0375 37.3128C66.045 37.3022 66.0529 37.2908 66.0611 37.2786C66.1124 37.2019 66.1651 37.1093 66.2111 37.0107C66.2575 36.9113 66.2886 36.8239 66.3062 36.7584C66.3139 36.7297 66.3175 36.7112 66.319 36.7023V36.5073C66.319 36.3921 66.2936 36.3305 66.2698 36.2891C66.2414 36.2401 66.1814 36.1644 66.0557 36.0807C66.0518 36.078 66.037 36.0704 66.0113 36.0704C66.0002 36.0704 65.9911 36.0718 65.984 36.0737C65.9346 36.1102 65.8759 36.1523 65.8136 36.1963C65.6867 36.2862 65.514 36.4063 65.3051 36.5502C64.8856 36.8392 64.2998 37.2382 63.5981 37.7128C62.1937 38.6626 60.3135 39.9229 58.347 41.2263C54.5052 43.7727 50.1916 46.5791 48.5496 47.4734C46.908 48.4769 45.2531 49.1466 43.8218 49.4261C43.1053 49.5659 42.3567 49.6255 41.6546 49.5232C41.0077 49.4291 40.1462 49.155 39.5318 48.4029C39.1189 47.9294 38.9337 47.3549 38.8497 47.0599C38.7289 46.6357 38.6508 46.1582 38.6288 45.6885L38.6267 45.6418V45.595V45.4496V45.4423H38.6267C38.6302 44.4904 38.8962 42.4579 41.0206 41.1503L41.0577 41.1274L41.0958 41.1062C42.1544 40.5167 44.6216 38.9535 47.3088 37.2511C47.7497 36.9718 48.1966 36.6887 48.644 36.4055L54.3126 32.0709ZM54.3126 32.0709L54.3333 32.0579M54.3126 32.0709L54.3333 32.0579M54.3333 32.0579L54.3536 32.0444M54.3333 32.0579L54.3536 32.0444M54.3536 32.0444C54.385 32.0235 54.4199 32.0086 54.4566 32.0004C54.4929 31.9985 54.5292 32.003 54.564 32.0138C54.6059 32.0268 54.6445 32.0486 54.6773 32.0777L56.0026 30.5868L54.6773 32.0777C54.7101 32.1069 54.7363 32.1427 54.7541 32.1827C54.7719 32.2228 54.7809 32.2663 54.7806 32.3101L54.7805 32.318V32.3258V35.7873V35.8643L54.7864 35.941C54.7924 36.0181 54.7691 36.0946 54.7211 36.1553C54.6732 36.216 54.6042 36.2565 54.5278 36.2686C54.4514 36.2807 54.3733 36.2636 54.3089 36.2207L53.1993 37.8846M54.3536 32.0444L53.1993 37.8846M53.1993 37.8846L54.3089 36.2207C54.2446 36.1778 54.1988 36.1122 54.1806 36.037L53.5225 33.317L51.1622 34.8205C50.6198 35.166 50.3378 35.342 50.0107 35.5461C49.6921 35.745 49.3307 35.9705 48.6442 36.4054C48.6445 36.4053 48.6447 36.4051 48.645 36.4049L53.1993 37.8846ZM71.6351 38.5289C72.7516 40.1882 72.7515 40.1883 72.7515 40.1883L72.7511 40.1886L72.7495 40.1897L72.7432 40.1939L72.7182 40.2107L72.6206 40.2764L72.2484 40.5268L70.9048 41.4306C69.7842 42.1844 68.2691 43.2034 66.691 44.2643C63.712 46.2671 60.5023 48.4236 59.3043 49.2238L59.2788 49.2513L59.1344 49.3596C57.7694 50.3834 57.041 51.5395 56.7364 52.4808C56.5555 53.0452 56.4665 53.6351 56.4727 54.2278L56.4728 54.2383V54.2489V54.9712V55.0177L56.4707 55.0642C56.4702 55.0737 56.4702 55.0833 56.4707 55.0928L56.4728 55.1393V55.1858V83.095C56.4728 84.4121 57.2034 85.5845 58.6561 86.5186C60.1293 87.4659 62.1583 88.0181 64.1374 88.0181C65.9603 88.0181 67.4076 87.6204 68.3634 86.9832L68.4133 86.95L68.4651 86.9198C69.7149 86.1907 73.626 83.2824 77.3774 80.429C79.2184 79.0287 80.9738 77.6781 82.2694 76.6773C82.9171 76.1771 83.4495 75.7644 83.8199 75.477C84.0051 75.3333 84.1497 75.2209 84.2479 75.1445L84.3598 75.0575L84.3882 75.0353L84.3953 75.0298L84.3971 75.0284L84.3975 75.0281C84.3976 75.0281 84.3976 75.028 84.6244 75.3191L84.3976 75.028L84.4558 74.9826L84.5173 74.9417C84.6626 74.8448 84.7433 74.7579 84.7805 74.7077V44.8012C84.7805 44.6404 84.7648 44.5412 84.7516 44.4866C84.7452 44.4599 84.7393 44.4436 84.736 44.4353C84.7343 44.431 84.733 44.4283 84.7322 44.4268L84.731 44.4244L84.7307 44.4241L84.7291 44.4221C84.7272 44.4198 84.7213 44.4132 84.7087 44.4024C84.6832 44.3805 84.6261 44.3377 84.5153 44.2823L84.4268 44.2381C84.4147 44.2388 84.4004 44.24 84.384 44.2419C84.3164 44.2499 84.2375 44.2682 84.159 44.2968C84.1008 44.3179 84.0555 44.34 84.0247 44.3575C82.9218 45.1859 81.2914 46.4408 79.4722 47.841C78.2376 48.7912 76.9161 49.8083 75.6135 50.8045C72.4332 53.2367 69.2542 55.6315 67.9772 56.3977L67.959 56.4087L67.9405 56.4192C66.1714 57.4301 64.3699 58.1129 62.76 58.3613C61.2797 58.5896 59.383 58.5283 58.1055 57.2508C57.5936 56.7388 57.2961 56.1579 57.1692 55.5189C57.082 55.0796 57.0856 54.6078 57.0877 54.3429C57.088 54.3077 57.0882 54.2762 57.0882 54.2489V54.214L57.0894 54.1791C57.1061 53.7009 57.1608 53.1503 57.3298 52.6254L71.6351 38.5289ZM71.6351 38.5289L72.7516 40.1882L72.7963 40.1582L72.8393 40.1258C72.8683 40.1039 72.9009 40.0874 72.9355 40.0769C72.9659 40.077 72.9963 40.0817 73.0255 40.0907C73.0674 40.1037 73.1061 40.1255 73.1388 40.1546L74.4247 38.708L73.1388 40.1546C73.1716 40.1838 73.1978 40.2196 73.2156 40.2597C73.2334 40.2997 73.2425 40.3432 73.2421 40.387L73.2421 40.3949V40.4027V43.855C73.2409 43.9258 73.2153 43.994 73.1696 44.0482C73.1231 44.1032 73.0589 44.1402 72.9881 44.1528C72.9172 44.1653 72.8442 44.1526 72.7817 44.1169C72.7192 44.0812 72.6712 44.0247 72.6461 43.9572L71.7559 41.569L69.6479 43.0016C68.8192 43.5648 67.8826 44.202 66.9172 44.8587C63.9951 46.8465 60.8101 49.0132 59.5626 49.8466L59.5109 49.8811L59.4615 49.9188C59.4097 49.9583 59.3356 50.0178 59.254 50.0975C58.1344 50.9945 57.6038 51.774 57.3299 52.625L71.6351 38.5289ZM38.0081 45.2938C38.0081 45.2935 38.0081 45.2937 38.0081 45.2943L38.0081 45.2938ZM84.1651 54.9712V50.8915L80.9402 53.3902L69.4017 62.3302L68.6267 62.9307V63.9112V68.5266V72.6062L71.8516 70.1076L83.3901 61.1676L84.1651 60.567V59.5866V54.9712Z" stroke="#080200" stroke-width="4"/>
</svg>
