<svg width="120" height="120" viewBox="0 0 120 120" fill="none" xmlns="http://www.w3.org/2000/svg">
<circle cx="60" cy="60" r="60" fill="#E1D7CD"/>
<path d="M66.25 36C67.7073 35.9998 69.1379 36.3916 70.3918 37.1343C71.6456 37.877 72.6767 38.9433 73.3768 40.2214C74.077 41.4996 74.4205 42.9425 74.3713 44.399C74.3222 45.8555 73.8822 47.272 73.0975 48.5H79.375C81.1 48.5 82.5 49.9 82.5 51.625V60.375C82.5001 61.0954 82.2514 61.7937 81.7958 62.3518C81.3402 62.9099 80.7059 63.2934 80 63.4375V77.875C80.0001 79.9503 79.2061 81.9471 77.7808 83.4556C76.3555 84.9641 74.407 85.87 72.335 85.9875L71.875 86H48.125C46.0497 86.0001 44.0529 85.2061 42.5444 83.7808C41.0359 82.3555 40.13 80.407 40.0125 78.335L40 77.875V63.4375C38.575 63.1475 37.5 61.8875 37.5 60.375V51.625C37.5 49.9 38.9 48.5 40.625 48.5H46.9025C45.7811 46.7576 45.3677 44.6526 45.7469 42.6156C46.1261 40.5785 47.2693 38.7633 48.9426 37.5412C50.6159 36.3191 52.6929 35.7825 54.7488 36.0411C56.8046 36.2997 58.684 37.334 60.0025 38.9325C60.7636 38.0138 61.7183 37.2745 62.7983 36.7676C63.8783 36.2606 65.0569 35.9985 66.25 36ZM58.125 63.4975H43.75V77.875C43.75 78.973 44.1629 80.0308 44.9067 80.8385C45.6505 81.6461 46.6707 82.1446 47.765 82.235L48.125 82.25H58.125V63.4975ZM76.25 63.4975H61.875V82.25H71.875C72.9734 82.2499 74.0315 81.8367 74.8393 81.0924C75.647 80.3481 76.1452 79.3272 76.235 78.2325L76.25 77.875V63.4975ZM58.125 52.25H41.25V59.75L58.125 59.7475V52.25ZM78.75 59.75V52.25H61.875V59.7475L78.75 59.75ZM66.25 39.75C65.0897 39.75 63.9769 40.2109 63.1564 41.0314C62.3359 41.8519 61.875 42.9647 61.875 44.125V48.4975H66.31L66.61 48.485C67.7349 48.3916 68.7802 47.867 69.5274 47.0209C70.2746 46.1748 70.6658 45.0727 70.6193 43.9448C70.5728 42.817 70.0922 41.7508 69.278 40.969C68.4637 40.1873 67.3788 39.7505 66.25 39.75ZM53.75 39.75C52.6212 39.7505 51.5363 40.1873 50.722 40.969C49.9078 41.7508 49.4272 42.817 49.3807 43.9448C49.3342 45.0727 49.7254 46.1748 50.4726 47.0209C51.2198 47.867 52.2651 48.3916 53.39 48.485L53.69 48.4975H58.125V44.125L58.11 43.765C58.0197 42.6707 57.5212 41.6505 56.7135 40.9067C55.9058 40.1629 54.848 39.75 53.75 39.75Z" fill="#080200"/>
</svg>
