<svg width="120" height="120" viewBox="0 0 120 120" fill="none" xmlns="http://www.w3.org/2000/svg">
<circle cx="60" cy="60" r="60" fill="#E1D7CD"/>
<path d="M50.3576 40.7144C49.0912 40.7144 47.8373 40.9638 46.6674 41.4484C45.4975 41.933 44.4345 42.6433 43.539 43.5387C42.6436 44.4341 41.9333 45.4971 41.4487 46.6671C40.9641 47.837 40.7147 49.0909 40.7147 50.3572C40.7147 51.6235 40.9641 52.8774 41.4487 54.0474C41.9333 55.2173 42.6436 56.2803 43.539 57.1757C44.4345 58.0712 45.4975 58.7815 46.6674 59.2661C47.8373 59.7507 49.0912 60.0001 50.3576 60.0001C52.915 60.0001 55.3677 58.9841 57.1761 57.1757C58.9845 55.3674 60.0004 52.9147 60.0004 50.3572C60.0004 47.7998 58.9845 45.3471 57.1761 43.5387C55.3677 41.7303 52.915 40.7144 50.3576 40.7144ZM43.929 50.3572C43.929 49.513 44.0953 48.6771 44.4183 47.8971C44.7414 47.1172 45.2149 46.4085 45.8119 45.8115C46.4088 45.2146 47.1175 44.7411 47.8975 44.418C48.6774 44.0949 49.5134 43.9286 50.3576 43.9286C51.2018 43.9286 52.0377 44.0949 52.8177 44.418C53.5976 44.7411 54.3063 45.2146 54.9032 45.8115C55.5002 46.4085 55.9737 47.1172 56.2968 47.8971C56.6199 48.6771 56.7861 49.513 56.7861 50.3572C56.7861 52.0622 56.1088 53.6973 54.9032 54.9029C53.6977 56.1085 52.0625 56.7858 50.3576 56.7858C48.6526 56.7858 47.0175 56.1085 45.8119 54.9029C44.6063 53.6973 43.929 52.0622 43.929 50.3572ZM72.8576 45.0001C70.8684 45.0001 68.9608 45.7902 67.5543 47.1968C66.1477 48.6033 65.3576 50.5109 65.3576 52.5001C65.3576 54.4892 66.1477 56.3968 67.5543 57.8034C68.9608 59.2099 70.8684 60.0001 72.8576 60.0001C74.8467 60.0001 76.7543 59.2099 78.1609 57.8034C79.5674 56.3968 80.3576 54.4892 80.3576 52.5001C80.3576 50.5109 79.5674 48.6033 78.1609 47.1968C76.7543 45.7902 74.8467 45.0001 72.8576 45.0001ZM68.5718 52.5001C68.5718 51.3634 69.0234 50.2733 69.8271 49.4696C70.6308 48.6659 71.7209 48.2144 72.8576 48.2144C73.9942 48.2144 75.0843 48.6659 75.888 49.4696C76.6917 50.2733 77.1433 51.3634 77.1433 52.5001C77.1433 53.6367 76.6917 54.7268 75.888 55.5305C75.0843 56.3343 73.9942 56.7858 72.8576 56.7858C71.7209 56.7858 70.6308 56.3343 69.8271 55.5305C69.0234 54.7268 68.5718 53.6367 68.5718 52.5001ZM34.2861 69.1072C34.2861 67.8285 34.7941 66.6021 35.6983 65.698C36.6025 64.7938 37.8288 64.2858 39.1076 64.2858H61.6076C62.8863 64.2858 64.1126 64.7938 65.0168 65.698C65.921 66.6021 66.429 67.8285 66.429 69.1072V70.2451C66.4262 70.4185 66.4141 70.5916 66.3926 70.7636C66.3442 71.2057 66.2655 71.6439 66.1568 72.0751C65.8025 73.4822 65.1709 74.8045 64.299 75.9644C62.1261 78.8636 57.9818 81.4286 50.3576 81.4286C42.7333 81.4286 38.589 78.8636 36.4161 75.9644C35.545 74.8043 34.9141 73.4821 34.5604 72.0751C34.4205 71.5149 34.3309 70.9433 34.2926 70.3672C34.2899 70.3265 34.2877 70.2858 34.2861 70.2451V69.1072ZM37.5004 70.1679V70.2065L37.5197 70.4208C37.5411 70.6222 37.584 70.9244 37.6783 71.2951C37.9281 72.2862 38.3724 73.2178 38.9854 74.0358C40.4297 75.9579 43.5176 78.2144 50.3576 78.2144C57.1976 78.2144 60.2854 75.9579 61.7276 74.0358C62.4776 73.0372 62.8504 72.0386 63.0347 71.2951C63.1247 70.9379 63.1842 70.5737 63.2126 70.2065L63.2147 70.1679V69.1072C63.2147 68.681 63.0454 68.2722 62.744 67.9708C62.4426 67.6694 62.0338 67.5001 61.6076 67.5001H39.1076C38.6813 67.5001 38.2725 67.6694 37.9711 67.9708C37.6697 68.2722 37.5004 68.681 37.5004 69.1072V70.1679ZM66.6433 76.3286C68.2997 76.8365 70.344 77.1429 72.8533 77.1429C78.789 77.1429 82.1061 75.4372 83.9083 73.3801C84.6289 72.566 85.1628 71.6043 85.4726 70.5622C85.5949 70.1415 85.6732 69.7091 85.7061 69.2722L85.7104 69.1715V69.1072C85.7104 67.8285 85.2025 66.6021 84.2983 65.698C83.3941 64.7938 82.1677 64.2858 80.889 64.2858H66.6304C67.4747 65.1665 68.0919 66.2701 68.3833 67.5001H80.8911C81.3137 67.5 81.7193 67.6664 82.0201 67.9632C82.3208 68.26 82.4926 68.6633 82.4983 69.0858C82.4793 69.2803 82.442 69.4726 82.3869 69.6601C82.2076 70.2537 81.9004 70.8008 81.4869 71.2629C80.4776 72.4201 78.1718 73.9286 72.8533 73.9286C70.8368 73.9286 69.2533 73.7122 68.0083 73.3779C67.678 74.4145 67.2195 75.4058 66.6433 76.3286Z" fill="#080200"/>
</svg>
