<svg width="52" height="52" viewBox="0 0 52 52" fill="none" xmlns="http://www.w3.org/2000/svg">
<circle cx="26" cy="26" r="26" fill="#464140"/>
<circle cx="26" cy="26" r="25" stroke="white" stroke-opacity="0.75" stroke-width="2"/>
<mask id="path-3-inside-1_577_41" fill="white">
<path d="M28.0558 40.9466V27.6281H32.5489L33.2168 22.4135H28.0558V19.0919C28.0558 17.5872 28.4751 16.5569 30.6347 16.5569H33.3712V11.9078C32.0397 11.7651 30.7014 11.6962 29.3623 11.7014C25.3908 11.7014 22.6641 14.1259 22.6641 18.5768V22.4037H18.2002V27.6183H22.6738V40.9466H28.0558Z"/>
</mask>
<path d="M28.0558 40.9466V27.6281H32.5489L33.2168 22.4135H28.0558V19.0919C28.0558 17.5872 28.4751 16.5569 30.6347 16.5569H33.3712V11.9078C32.0397 11.7651 30.7014 11.6962 29.3623 11.7014C25.3908 11.7014 22.6641 14.1259 22.6641 18.5768V22.4037H18.2002V27.6183H22.6738V40.9466H28.0558Z" fill="white"/>
<path d="M28.0558 40.9466V41.9466H29.0558V40.9466H28.0558ZM28.0558 27.6281V26.6281H27.0558V27.6281H28.0558ZM32.5489 27.6281V28.6281H33.429L33.5408 27.7551L32.5489 27.6281ZM33.2168 22.4135L34.2087 22.5405L34.3531 21.4135H33.2168V22.4135ZM28.0558 22.4135H27.0558V23.4135H28.0558V22.4135ZM33.3712 16.5569V17.5569H34.3712V16.5569H33.3712ZM33.3712 11.9078H34.3712V11.0093L33.4778 10.9135L33.3712 11.9078ZM29.3623 11.7014V12.7015L29.3662 12.7014L29.3623 11.7014ZM22.6641 22.4037V23.4037H23.6641V22.4037H22.6641ZM18.2002 22.4037V21.4037H17.2002V22.4037H18.2002ZM18.2002 27.6183H17.2002V28.6183H18.2002V27.6183ZM22.6738 27.6183H23.6738V26.6183H22.6738V27.6183ZM22.6738 40.9466H21.6738V41.9466H22.6738V40.9466ZM29.0558 40.9466V27.6281H27.0558V40.9466H29.0558ZM28.0558 28.6281H32.5489V26.6281H28.0558V28.6281ZM33.5408 27.7551L34.2087 22.5405L32.2249 22.2864L31.557 27.501L33.5408 27.7551ZM33.2168 21.4135H28.0558V23.4135H33.2168V21.4135ZM29.0558 22.4135V19.0919H27.0558V22.4135H29.0558ZM29.0558 19.0919C29.0558 18.383 29.167 18.0629 29.3008 17.9038C29.4019 17.7835 29.6893 17.5569 30.6347 17.5569V15.5569C29.4205 15.5569 28.4184 15.8455 27.77 16.6166C27.1543 17.3488 27.0558 18.2961 27.0558 19.0919H29.0558ZM30.6347 17.5569H33.3712V15.5569H30.6347V17.5569ZM34.3712 16.5569V11.9078H32.3712V16.5569H34.3712ZM33.4778 10.9135C32.1096 10.7669 30.7344 10.6961 29.3584 10.7015L29.3662 12.7014C30.6684 12.6964 31.9699 12.7634 33.2646 12.9021L33.4778 10.9135ZM29.3623 10.7014C27.1737 10.7014 25.2255 11.3728 23.8215 12.7582C22.4142 14.1469 21.6641 16.1438 21.6641 18.5768H23.6641C23.6641 16.559 24.2774 15.1182 25.2262 14.1819C26.1785 13.2423 27.5795 12.7014 29.3623 12.7014V10.7014ZM21.6641 18.5768V22.4037H23.6641V18.5768H21.6641ZM22.6641 21.4037H18.2002V23.4037H22.6641V21.4037ZM17.2002 22.4037V27.6183H19.2002V22.4037H17.2002ZM18.2002 28.6183H22.6738V26.6183H18.2002V28.6183ZM21.6738 27.6183V40.9466H23.6738V27.6183H21.6738ZM22.6738 41.9466H28.0558V39.9466H22.6738V41.9466Z" fill="white" fill-opacity="0.75" mask="url(#path-3-inside-1_577_41)"/>
</svg>
