<svg width="120" height="120" viewBox="0 0 120 120" fill="none" xmlns="http://www.w3.org/2000/svg">
<circle cx="60" cy="60" r="60" fill="#E1D7CD"/>
<path d="M81.625 45.313C74.182 42.476 66.063 38.796 54.438 35H31C47.22 50.979 37.278 79.019 53.5 95C65.433 87.17 79.065 79.393 91 71.563C83.826 64.495 83.222 54.347 81.625 45.313ZM53.775 92.581C47.016 85.139 45.6 75.214 44.105 64.733C42.71 54.96 41.275 44.894 35.147 36.875H54.042C55.358 37.669 57.927 39.36 58.69 40.894C53.712 41.701 48.153 42.657 43.225 43.452C43.618 44.214 43.976 44.99 44.3 45.777C49.172 44.887 54.671 43.836 59.593 42.933C60.1009 44.2431 60.5238 45.5845 60.859 46.949C56.023 48.01 50.532 49.071 45.765 50.132C45.987 50.956 46.186 51.787 46.364 52.626C51.094 51.464 56.548 50.302 61.351 49.14C61.452 49.639 61.548 50.139 61.636 50.642C68.084 48.942 73.232 46.751 79.96 46.702C80.115 47.619 80.261 48.545 80.414 49.511C81.561 56.759 82.85 64.892 88.119 71.199C82.699 74.704 76.904 78.241 71.281 81.674C65.436 85.244 59.404 88.926 53.775 92.581Z" fill="#080200"/>
<path d="M47.1592 57.2181C47.2802 58.0771 47.3862 58.9401 47.4862 59.8071L77.0862 50.5861C77.0134 49.9477 76.9321 49.3103 76.8422 48.6741C66.9472 51.5211 57.0532 54.3711 47.1592 57.2181ZM51.7292 83.1161C52.0602 83.9021 52.4262 84.6771 52.8262 85.4361C57.5282 82.7831 62.2282 80.1291 66.9272 77.4761C66.581 76.8181 66.2634 76.1454 65.9752 75.4601C61.2272 78.0141 56.4792 80.5641 51.7292 83.1161Z" fill="#080200"/>
</svg>
