<svg width="120" height="120" viewBox="0 0 120 120" fill="none" xmlns="http://www.w3.org/2000/svg">
<circle cx="60" cy="60" r="60" fill="#E1D7CD"/>
<path d="M69.7264 36.3643L69.7258 36.3646C67.7376 37.5116 66.3317 39.2649 65.517 41.2989L73.5224 55.1684C75.687 55.4801 77.9115 55.1382 79.9076 53.9894C82.2451 52.6394 83.9507 50.4162 84.6493 47.8089C85.3479 45.2014 84.9824 42.4233 83.633 40.0854L69.7264 36.3643ZM69.7264 36.3643C72.0642 35.0145 74.8423 34.6483 77.45 35.3461C80.0573 36.0438 82.2809 37.748 83.6323 40.0842L69.7264 36.3643ZM60.6893 46.735L66.3996 56.63L56.1211 61.6114L54.9934 62.158V63.4112V84.9732H52.9934V66.3212V63.1303L50.1216 64.5212L38.6158 70.0939L35.138 64.0721L60.6893 46.735Z" stroke="#080200" stroke-width="4"/>
</svg>
