<svg width="60" height="60" viewBox="0 0 60 60" fill="none" xmlns="http://www.w3.org/2000/svg">
<path d="M17.5004 45C17.0061 44.9999 16.5228 44.8532 16.1118 44.5785C15.7008 44.3038 15.3804 43.9134 15.1912 43.4566C15.0021 42.9999 14.9526 42.4973 15.049 42.0124C15.1454 41.5275 15.3834 41.0821 15.7329 40.7325L40.7329 15.7325C41.2044 15.2771 41.836 15.0251 42.4914 15.0308C43.1469 15.0365 43.774 15.2994 44.2375 15.7629C44.701 16.2265 44.9639 16.8535 44.9696 17.509C44.9753 18.1645 44.7233 18.796 44.2679 19.2675L19.2679 44.2675C19.0361 44.5 18.7606 44.6844 18.4573 44.8101C18.154 44.9358 17.8288 45.0003 17.5004 45Z" fill="white"/>
<path d="M42.4996 45C42.1712 45.0003 41.846 44.9358 41.5427 44.8101C41.2394 44.6844 40.9639 44.5 40.7321 44.2675L15.7321 19.2675C15.2767 18.796 15.0247 18.1645 15.0304 17.509C15.0361 16.8535 15.299 16.2265 15.7625 15.7629C16.226 15.2994 16.8531 15.0365 17.5086 15.0308C18.164 15.0251 18.7955 15.2771 19.2671 15.7325L44.2671 40.7325C44.6166 41.0821 44.8546 41.5275 44.951 42.0124C45.0474 42.4973 44.9979 42.9999 44.8087 43.4566C44.6196 43.9134 44.2992 44.3038 43.8882 44.5785C43.4772 44.8532 42.9939 44.9999 42.4996 45Z" fill="white"/>
</svg>
