<svg width="120" height="120" viewBox="0 0 120 120" fill="none" xmlns="http://www.w3.org/2000/svg">
<circle cx="60" cy="60" r="60" fill="#E1D7CD"/>
<g clip-path="url(#clip0_428_473)">
<path d="M67.6258 38.1505C65.9637 37.555 64.2387 37.2512 62.4988 37.2512C54.0886 37.2512 47.25 44.0898 47.25 52.5C47.25 60.9087 54.0882 67.7488 62.4977 67.7477L67.6258 38.1505ZM67.6258 38.1505C67.8618 38.1876 68.092 38.2579 68.3095 38.3598C68.6467 38.5177 68.9451 38.7478 69.1837 39.0337C69.4222 39.3197 69.5951 39.6545 69.6901 40.0146C69.7851 40.3746 69.7999 40.7511 69.7334 41.1176C69.6669 41.484 69.5208 41.8313 69.3054 42.135C69.09 42.4388 68.8106 42.6915 68.4868 42.8755C68.4868 42.8755 68.4868 42.8755 68.4867 42.8755L67.6258 38.1505ZM83.659 83.2182L83.7629 83.7378L84.1376 84.1124C84.6968 84.6717 84.75 85.0028 84.75 85.125V87C84.75 87.4373 84.5881 87.7224 84.38 87.9131C84.1493 88.1246 83.8246 88.25 83.5 88.25H45.25C39.8415 88.25 35.75 84.1585 35.75 78.75V41.25C35.75 35.8415 39.8415 31.75 45.25 31.75H83.5C84.0866 31.75 84.3505 31.9191 84.4657 32.0343C84.5809 32.1495 84.75 32.4134 84.75 33V72C84.75 72.3794 84.6853 72.5601 84.6535 72.6236C84.6397 72.6513 84.6308 72.66 84.6298 72.6609L84.6297 72.661L84.6297 72.6611C84.6287 72.662 84.6201 72.6709 84.5924 72.6848L83.8725 73.0447L83.6772 73.8256C83.4296 74.8161 83.3438 76.7148 83.3438 78.4219C83.3438 80.1633 83.4346 82.0962 83.659 83.2182ZM67.715 46.3108L67.7138 46.3131L66.8098 48.143L64.7914 48.4361L64.791 48.4362C63.047 48.69 62.3396 50.8353 63.6095 52.0728C63.6095 52.0729 63.6096 52.0729 63.6097 52.073L65.0704 53.4966L64.7256 55.5064L64.7253 55.508C64.4875 56.9021 65.6006 58 66.8266 58C67.1677 58 67.5054 57.9176 67.8121 57.7581L67.8187 57.7546L69.625 56.8054L71.4312 57.7546L71.4379 57.7581C71.7446 57.9176 72.0823 58 72.4234 58C73.6494 58 74.7625 56.9021 74.5247 55.508L74.5244 55.5064L74.1796 53.4966L75.6405 52.0728L75.6436 52.0699C76.9043 50.8353 76.2056 48.6913 74.46 48.4363L74.4585 48.4361L72.4393 48.143L71.5364 46.3137L71.535 46.3108C71.1476 45.5295 70.3756 45.125 69.625 45.125C68.8744 45.125 68.1024 45.5295 67.715 46.3108ZM66.6414 43.1429C66.6503 43.1435 66.6594 43.144 66.6686 43.1446L62.4979 67.7477C64.2995 67.7476 66.0843 67.4212 67.8007 66.784C68.7795 66.4375 69.4988 65.5031 69.4988 64.3852C69.4988 63.0345 68.4208 61.8406 66.952 61.8406C66.9037 61.8406 66.8607 61.8424 66.8377 61.8434C66.8103 61.8446 66.7829 61.8461 66.7592 61.8474C66.7365 61.8488 66.7115 61.8503 66.6868 61.8519C66.6616 61.8535 66.6368 61.8551 66.6152 61.8565C66.602 61.8573 66.5895 61.8581 66.5774 61.8589C66.546 61.8608 66.5184 61.8624 66.4944 61.8637C66.4549 61.8657 66.4513 61.8652 66.468 61.8652C61.3045 61.8652 57.1016 57.6614 57.1016 52.4988C57.1016 47.338 61.3 43.1368 66.4599 43.1324C66.463 43.1325 66.4738 43.1329 66.4943 43.134C66.5271 43.1357 66.5668 43.1381 66.6142 43.1411L66.6414 43.1429ZM78.625 84.25H80.375V82.5V75V73.25H78.625H45.25C42.5242 73.25 39.75 75.4217 39.75 78.75C39.75 80.2727 40.2652 81.6776 41.2938 82.7062C42.3224 83.7348 43.7273 84.25 45.25 84.25H78.625Z" stroke="#080200" stroke-width="3.5"/>
</g>
<defs>
<clipPath id="clip0_428_473">
<rect width="52.5" height="60" fill="white" transform="translate(34 30)"/>
</clipPath>
</defs>
</svg>
