<svg width="120" height="120" viewBox="0 0 120 120" fill="none" xmlns="http://www.w3.org/2000/svg">
<circle cx="60" cy="60" r="60" fill="#E1D7CD"/>
<path d="M60.8872 59.7615L58.9523 57.0999L57.4807 60.0431L52.2072 70.5899L51.4554 72.0936L52.8074 73.0928L66.4108 83.146C66.4113 83.1463 66.4117 83.1466 66.4121 83.1469C67.3467 83.8403 67.729 85.0491 67.366 86.1518C67.0028 87.2548 65.9749 88 64.8125 88H40.4375C38.9522 88 37.75 86.7978 37.75 85.3125C37.75 83.8272 38.9522 82.625 40.4375 82.625H50.5859H56.6593L51.7743 79.0163L45.5412 74.4118C42.2338 71.9644 41.2128 67.4871 43.1226 63.8472L48.8159 53.0112C48.8161 53.0107 48.8164 53.0101 48.8167 53.0096C50.1588 50.4667 52.7943 48.875 55.6719 48.875C58.1525 48.875 60.4759 50.0594 61.9128 52.0524L61.9128 52.0524L61.9181 52.0597L64.9884 56.2784L66.2343 57.9904L67.8726 56.649L74.3412 51.3522C74.3412 51.3522 74.3413 51.3521 74.3413 51.3521C75.4914 50.4106 77.1842 50.5795 78.1244 51.7279C79.0658 52.8778 78.8971 54.5704 77.7491 55.5107C77.749 55.5108 77.7488 55.5109 77.7487 55.5111L67.4366 63.9482L67.4317 63.9522C66.8684 64.4162 66.1336 64.6267 65.3954 64.5319C64.665 64.4381 64.0084 64.051 63.5695 63.4511C63.5691 63.4505 63.5687 63.4499 63.5682 63.4493L60.8872 59.7615ZM65.75 32C68.7822 32 71.25 34.4679 71.25 37.5C71.25 40.5321 68.7822 43 65.75 43C62.7179 43 60.25 40.5321 60.25 37.5C60.25 34.4679 62.7179 32 65.75 32Z" stroke="#080200" stroke-width="4"/>
</svg>
