<svg width="120" height="120" viewBox="0 0 120 120" fill="none" xmlns="http://www.w3.org/2000/svg">
<circle cx="60" cy="60" r="60" fill="#E1D7CD"/>
<g clip-path="url(#clip0_428_458)">
<path fill-rule="evenodd" clip-rule="evenodd" d="M60.0005 43.3049L57.3117 40.5411C51.0005 34.0536 39.428 36.2924 35.2505 44.4486C33.443 47.9811 32.9255 52.9611 35.6555 59.2499H31.613C23.633 37.8861 47.2317 26.1374 59.3405 37.2861C59.5655 37.4924 59.7867 37.7061 60.0005 37.9274C60.212 37.7063 60.4322 37.4937 60.6605 37.2899C72.773 26.1374 96.368 37.8861 88.388 59.2499H84.3455C87.0755 52.9611 86.558 47.9811 84.7505 44.4486C80.573 36.2924 69.0005 34.0499 62.6892 40.5374L60.0005 43.3049ZM38.2955 70.4999H43.2267C47.2242 74.9361 52.688 79.7174 60.0005 84.7311C67.3092 79.7174 72.7767 74.9361 76.7742 70.4999H81.7055C76.9617 76.3724 69.9305 82.6874 60.0005 89.2499C50.0705 82.6874 43.0392 76.3724 38.2955 70.4999ZM69.2405 45.4274C69.095 45.0643 68.8396 44.7559 68.5101 44.5451C68.1806 44.3344 67.7935 44.232 67.4029 44.2523C67.0123 44.2725 66.6378 44.4144 66.3319 44.6581C66.0259 44.9018 65.8039 45.235 65.6967 45.6111L59.7042 66.5849L54.2405 52.9274C54.1132 52.6106 53.9019 52.3345 53.6292 52.129C53.3566 51.9234 53.033 51.7963 52.6934 51.7611C52.3538 51.726 52.011 51.7843 51.7021 51.9297C51.3932 52.0751 51.1298 52.3021 50.9405 52.5861L43.9955 62.9999H31.8755C31.3782 62.9999 30.9013 63.1974 30.5496 63.5491C30.198 63.9007 30.0005 64.3776 30.0005 64.8749C30.0005 65.3722 30.198 65.8491 30.5496 66.2007C30.9013 66.5523 31.3782 66.7499 31.8755 66.7499H45.0005C45.3092 66.7497 45.6132 66.6733 45.8853 66.5274C46.1575 66.3815 46.3894 66.1707 46.5605 65.9136L52.0842 57.6299L58.2605 73.0724C58.4059 73.4354 58.6613 73.7439 58.9908 73.9546C59.3203 74.1653 59.7074 74.2677 60.098 74.2475C60.4886 74.2272 60.8631 74.0853 61.169 73.8417C61.475 73.598 61.6971 73.2648 61.8042 72.8886L67.7967 51.9149L73.2605 65.5724C73.3998 65.92 73.6399 66.2179 73.95 66.4277C74.2602 66.6376 74.626 66.7498 75.0005 66.7499H88.1255C88.6227 66.7499 89.0997 66.5523 89.4513 66.2007C89.8029 65.8491 90.0005 65.3722 90.0005 64.8749C90.0005 64.3776 89.8029 63.9007 89.4513 63.5491C89.0997 63.1974 88.6227 62.9999 88.1255 62.9999H76.268L69.2405 45.4274Z" fill="#080200"/>
</g>
<defs>
<clipPath id="clip0_428_458">
<rect width="60" height="60" fill="white" transform="translate(30 33)"/>
</clipPath>
</defs>
</svg>
